
<global>
amp_veltrack=0
interval_mode=staffpad
master-volume=12.0
xf_cccurve=gain
xfin_hicc1=127
xfout_hicc1=127
xfout_locc1=127
</global>

<group>
group_label=PP

<region>
end=120000
hivel=0
interval_point=72000
key=F5
lovel=0
offset=24000
sample=Altos_Mmm_legato_repeat_PP_F5.opus
</region>

<region>
end=120000
hivel=0
interval_point=72000
key=A#3
lovel=0
offset=24000
sample=Altos_Mmm_legato_repeat_PP_A#3.opus
</region>

<region>
end=120000
hivel=0
interval_point=72000
key=A#4
lovel=0
offset=24000
sample=Altos_Mmm_legato_repeat_PP_A#4.opus
</region>

<region>
end=120000
hivel=0
interval_point=72000
key=A3
lovel=0
offset=24000
sample=Altos_Mmm_legato_repeat_PP_A3.opus
</region>

<region>
end=120000
hivel=0
interval_point=72000
key=A4
lovel=0
offset=24000
sample=Altos_Mmm_legato_repeat_PP_A4.opus
</region>

<region>
end=120000
hivel=0
interval_point=72000
key=B3
lovel=0
offset=24000
sample=Altos_Mmm_legato_repeat_PP_B3.opus
</region>

<region>
end=120000
hivel=0
interval_point=72000
key=B4
lovel=0
offset=24000
sample=Altos_Mmm_legato_repeat_PP_B4.opus
</region>

<region>
end=120000
hivel=0
interval_point=72000
key=C#4
lovel=0
offset=24000
sample=Altos_Mmm_legato_repeat_PP_C#4.opus
</region>

<region>
end=120000
hivel=0
interval_point=72000
key=C#5
lovel=0
offset=24000
sample=Altos_Mmm_legato_repeat_PP_C#5.opus
</region>

<region>
end=120000
hikey=C4
hivel=0
interval_point=72000
lokey=C4
lovel=0
offset=24000
sample=Altos_Mmm_legato_repeat_PP_C4.opus
</region>

<region>
end=120000
hivel=0
interval_point=72000
key=C5
lovel=0
offset=24000
sample=Altos_Mmm_legato_repeat_PP_C5.opus
</region>

<region>
end=120000
hivel=0
interval_point=72000
key=D#4
lovel=0
offset=24000
sample=Altos_Mmm_legato_repeat_PP_D#4.opus
</region>

<region>
end=120000
hivel=0
interval_point=72000
key=D#5
lovel=0
offset=24000
sample=Altos_Mmm_legato_repeat_PP_D#5.opus
</region>

<region>
end=120000
hivel=0
interval_point=72000
key=D4
lovel=0
offset=24000
sample=Altos_Mmm_legato_repeat_PP_D4.opus
</region>

<region>
end=120000
hivel=0
interval_point=72000
key=D5
lovel=0
offset=24000
sample=Altos_Mmm_legato_repeat_PP_D5.opus
</region>

<region>
end=120000
hivel=0
interval_point=72000
key=E4
lovel=0
offset=24000
sample=Altos_Mmm_legato_repeat_PP_E4.opus
</region>

<region>
end=120000
hivel=0
interval_point=72000
key=E5
lovel=0
offset=24000
sample=Altos_Mmm_legato_repeat_PP_E5.opus
</region>

<region>
end=120000
hivel=0
interval_point=72000
key=F#4
lovel=0
offset=24000
sample=Altos_Mmm_legato_repeat_PP_F#4.opus
</region>

<region>
end=120000
hivel=0
interval_point=72000
key=F4
lovel=0
offset=24000
sample=Altos_Mmm_legato_repeat_PP_F4.opus
</region>

<region>
end=120000
hivel=0
interval_point=72000
key=G#3
lovel=0
offset=24000
sample=Altos_Mmm_legato_repeat_PP_G#3.opus
</region>

<region>
end=120000
hivel=0
interval_point=72000
key=G#4
lovel=0
offset=24000
sample=Altos_Mmm_legato_repeat_PP_G#4.opus
</region>

<region>
end=120000
hivel=0
interval_point=72000
key=G3
lovel=0
offset=24000
sample=Altos_Mmm_legato_repeat_PP_G3.opus
</region>

<region>
end=120000
hivel=0
interval_point=72000
key=G4
lovel=0
offset=24000
sample=Altos_Mmm_legato_repeat_PP_G4.opus
</region>

<region>
end=120000
hivel=13
interval_point=78336
key=A#3
lovel=13
post_interval_tune=-24
pre_interval_tune=+1
sample=Altos_Mmm_slurred_legato_PP_A#3_-1.opus
</region>

<region>
end=120000
hivel=14
interval_point=69632
key=A#3
lovel=14
post_interval_tune=-25
pre_interval_tune=+1
sample=Altos_Mmm_slurred_legato_PP_A#3_-2.opus
</region>

<region>
end=120000
hivel=15
interval_point=73728
key=A#3
lovel=15
post_interval_tune=-24
pre_interval_tune=0
sample=Altos_Mmm_slurred_legato_PP_A#3_-3.opus
</region>

<region>
end=120000
hivel=16
interval_point=72192
key=A#3
lovel=16
post_interval_tune=-28
pre_interval_tune=+7
sample=Altos_Mmm_slurred_legato_PP_A#3_-4.opus
</region>

<region>
end=120000
hivel=17
interval_point=65536
key=A#3
lovel=17
post_interval_tune=-6
pre_interval_tune=-4
sample=Altos_Mmm_slurred_legato_PP_A#3_-5.opus
</region>

<region>
end=120000
hivel=18
interval_point=66048
key=A#3
lovel=18
post_interval_tune=-3
pre_interval_tune=-8
sample=Altos_Mmm_slurred_legato_PP_A#3_-6.opus
</region>

<region>
end=120000
hivel=19
interval_point=66048
key=A#3
lovel=19
post_interval_tune=-27
pre_interval_tune=+2
sample=Altos_Mmm_slurred_legato_PP_A#3_-7.opus
</region>

<region>
end=120000
hivel=20
interval_point=70656
key=A#3
lovel=20
post_interval_tune=-23
pre_interval_tune=-2
sample=Altos_Mmm_slurred_legato_PP_A#3_-8.opus
</region>

<region>
end=120000
hivel=21
interval_point=69120
key=A#3
lovel=21
post_interval_tune=-4
pre_interval_tune=+7
sample=Altos_Mmm_slurred_legato_PP_A#3_-9.opus
</region>

<region>
end=120000
hivel=22
interval_point=69120
key=A#3
lovel=22
post_interval_tune=-12
pre_interval_tune=+5
sample=Altos_Mmm_slurred_legato_PP_A#3_-10.opus
</region>

<region>
end=120000
hivel=23
interval_point=67072
key=A#3
lovel=23
post_interval_tune=-2
pre_interval_tune=+9
sample=Altos_Mmm_slurred_legato_PP_A#3_-11.opus
</region>

<region>
end=120000
hivel=24
interval_point=66560
key=A#3
lovel=24
post_interval_tune=-13
pre_interval_tune=+3
sample=Altos_Mmm_slurred_legato_PP_A#3_-12.opus
</region>

<region>
end=131839
hivel=1
interval_point=66048
key=A#3
lovel=1
post_interval_tune=+5
pre_interval_tune=-27
sample=Altos_Mmm_slurred_legato_PP_A#3_+1.opus
</region>

<region>
end=131532
hivel=2
interval_point=72192
key=A#3
lovel=2
post_interval_tune=-10
pre_interval_tune=-1
sample=Altos_Mmm_slurred_legato_PP_A#3_+2.opus
</region>

<region>
end=131839
hivel=3
interval_point=75264
key=A#3
lovel=3
post_interval_tune=0
pre_interval_tune=-14
sample=Altos_Mmm_slurred_legato_PP_A#3_+3.opus
</region>

<region>
end=131839
hivel=4
interval_point=72704
key=A#3
lovel=4
post_interval_tune=+3
pre_interval_tune=+1
sample=Altos_Mmm_slurred_legato_PP_A#3_+4.opus
</region>

<region>
end=131839
hivel=5
interval_point=72704
key=A#3
lovel=5
post_interval_tune=+2
pre_interval_tune=-4
sample=Altos_Mmm_slurred_legato_PP_A#3_+5.opus
</region>

<region>
end=131839
hivel=6
interval_point=72192
key=A#3
lovel=6
post_interval_tune=+1
pre_interval_tune=+2
sample=Altos_Mmm_slurred_legato_PP_A#3_+6.opus
</region>

<region>
end=131839
hivel=7
interval_point=76800
key=A#3
lovel=7
post_interval_tune=0
pre_interval_tune=-3
sample=Altos_Mmm_slurred_legato_PP_A#3_+7.opus
</region>

<region>
end=131839
hivel=8
interval_point=75264
key=A#3
lovel=8
post_interval_tune=-1
pre_interval_tune=-13
sample=Altos_Mmm_slurred_legato_PP_A#3_+8.opus
</region>

<region>
end=131839
hivel=9
interval_point=76288
key=A#3
lovel=9
post_interval_tune=+10
pre_interval_tune=+7
sample=Altos_Mmm_slurred_legato_PP_A#3_+9.opus
</region>

<region>
end=131839
hivel=10
interval_point=77312
key=A#3
lovel=10
post_interval_tune=+6
pre_interval_tune=-5
sample=Altos_Mmm_slurred_legato_PP_A#3_+10.opus
</region>

<region>
end=131839
hivel=11
interval_point=72704
key=A#3
lovel=11
post_interval_tune=+7
pre_interval_tune=-12
sample=Altos_Mmm_slurred_legato_PP_A#3_+11.opus
</region>

<region>
end=131839
hivel=12
interval_point=74240
key=A#3
lovel=12
post_interval_tune=-1
pre_interval_tune=-12
sample=Altos_Mmm_slurred_legato_PP_A#3_+12.opus
</region>

<region>
end=120000
hivel=13
interval_point=71680
key=A#4
lovel=13
post_interval_tune=-6
pre_interval_tune=+13
sample=Altos_Mmm_slurred_legato_PP_A#4_-1.opus
</region>

<region>
end=120000
hivel=14
interval_point=69120
key=A#4
lovel=14
post_interval_tune=-10
pre_interval_tune=-12
sample=Altos_Mmm_slurred_legato_PP_A#4_-2.opus
</region>

<region>
end=120000
hivel=15
interval_point=70144
key=A#4
lovel=15
post_interval_tune=-3
pre_interval_tune=-6
sample=Altos_Mmm_slurred_legato_PP_A#4_-3.opus
</region>

<region>
end=120000
hivel=16
interval_point=72192
key=A#4
lovel=16
post_interval_tune=-9
pre_interval_tune=0
sample=Altos_Mmm_slurred_legato_PP_A#4_-4.opus
</region>

<region>
end=120000
hivel=17
interval_point=67584
key=A#4
lovel=17
post_interval_tune=-4
pre_interval_tune=-2
sample=Altos_Mmm_slurred_legato_PP_A#4_-5.opus
</region>

<region>
end=120000
hivel=18
interval_point=77824
key=A#4
lovel=18
post_interval_tune=-7
pre_interval_tune=+5
sample=Altos_Mmm_slurred_legato_PP_A#4_-6.opus
</region>

<region>
end=120000
hivel=19
interval_point=71168
key=A#4
lovel=19
post_interval_tune=-17
pre_interval_tune=+1
sample=Altos_Mmm_slurred_legato_PP_A#4_-7.opus
</region>

<region>
end=131839
hivel=1
interval_point=75264
key=A#4
lovel=1
post_interval_tune=+17
pre_interval_tune=-6
sample=Altos_Mmm_slurred_legato_PP_A#4_+1.opus
</region>

<region>
end=131839
hivel=2
interval_point=78336
key=A#4
lovel=2
post_interval_tune=0
pre_interval_tune=-14
sample=Altos_Mmm_slurred_legato_PP_A#4_+2.opus
</region>

<region>
end=131839
hivel=3
interval_point=74240
key=A#4
lovel=3
post_interval_tune=-9
pre_interval_tune=-3
sample=Altos_Mmm_slurred_legato_PP_A#4_+3.opus
</region>

<region>
end=131839
hivel=4
interval_point=75776
key=A#4
lovel=4
post_interval_tune=+7
pre_interval_tune=+3
sample=Altos_Mmm_slurred_legato_PP_A#4_+4.opus
</region>

<region>
end=131839
hivel=5
interval_point=78848
key=A#4
lovel=5
post_interval_tune=+11
pre_interval_tune=+8
sample=Altos_Mmm_slurred_legato_PP_A#4_+5.opus
</region>

<region>
end=131839
hivel=6
interval_point=73216
key=A#4
lovel=6
post_interval_tune=+9
pre_interval_tune=-2
sample=Altos_Mmm_slurred_legato_PP_A#4_+6.opus
</region>

<region>
end=131839
hivel=7
interval_point=79872
key=A#4
lovel=7
post_interval_tune=+3
pre_interval_tune=+5
sample=Altos_Mmm_slurred_legato_PP_A#4_+7.opus
</region>

<region>
end=120000
hivel=13
interval_point=71168
key=A3
lovel=13
post_interval_tune=-30
pre_interval_tune=-5
sample=Altos_Mmm_slurred_legato_PP_A3_-1.opus
</region>

<region>
end=120000
hivel=14
interval_point=74752
key=A3
lovel=14
post_interval_tune=-23
pre_interval_tune=-4
sample=Altos_Mmm_slurred_legato_PP_A3_-2.opus
</region>

<region>
end=120000
hivel=15
interval_point=69632
key=A3
lovel=15
post_interval_tune=-37
pre_interval_tune=-8
sample=Altos_Mmm_slurred_legato_PP_A3_-3.opus
</region>

<region>
end=120000
hivel=16
interval_point=72192
key=A3
lovel=16
post_interval_tune=-27
pre_interval_tune=+10
sample=Altos_Mmm_slurred_legato_PP_A3_-4.opus
</region>

<region>
end=120000
hivel=17
interval_point=66048
key=A3
lovel=17
post_interval_tune=-45
pre_interval_tune=-2
sample=Altos_Mmm_slurred_legato_PP_A3_-5.opus
</region>

<region>
end=120000
hivel=18
interval_point=67584
key=A3
lovel=18
post_interval_tune=-28
pre_interval_tune=+2
sample=Altos_Mmm_slurred_legato_PP_A3_-6.opus
</region>

<region>
end=120000
hivel=19
interval_point=65024
key=A3
lovel=19
post_interval_tune=-34
pre_interval_tune=-3
sample=Altos_Mmm_slurred_legato_PP_A3_-7.opus
</region>

<region>
end=120000
hivel=20
interval_point=70144
key=A3
lovel=20
post_interval_tune=-39
pre_interval_tune=+12
sample=Altos_Mmm_slurred_legato_PP_A3_-8.opus
</region>

<region>
end=120000
hivel=21
interval_point=67072
key=A3
lovel=21
post_interval_tune=-13
pre_interval_tune=+6
sample=Altos_Mmm_slurred_legato_PP_A3_-9.opus
</region>

<region>
end=120000
hivel=22
interval_point=69632
key=A3
lovel=22
post_interval_tune=-16
pre_interval_tune=+8
sample=Altos_Mmm_slurred_legato_PP_A3_-10.opus
</region>

<region>
end=120000
hivel=23
interval_point=67584
key=A3
lovel=23
post_interval_tune=-30
pre_interval_tune=-30
sample=Altos_Mmm_slurred_legato_PP_A3_-11.opus
</region>

<region>
end=120000
hivel=24
interval_point=67584
key=A3
lovel=24
post_interval_tune=-22
pre_interval_tune=-2
sample=Altos_Mmm_slurred_legato_PP_A3_-12.opus
</region>

<region>
end=131839
hivel=1
interval_point=65024
key=A3
lovel=1
post_interval_tune=-6
pre_interval_tune=-34
sample=Altos_Mmm_slurred_legato_PP_A3_+1.opus
</region>

<region>
end=131839
hivel=2
interval_point=73216
key=A3
lovel=2
post_interval_tune=+4
pre_interval_tune=-10
sample=Altos_Mmm_slurred_legato_PP_A3_+2.opus
</region>

<region>
end=131839
hivel=3
interval_point=72192
key=A3
lovel=3
post_interval_tune=+1
pre_interval_tune=-13
sample=Altos_Mmm_slurred_legato_PP_A3_+3.opus
</region>

<region>
end=131839
hivel=4
interval_point=70656
key=A3
lovel=4
post_interval_tune=+16
pre_interval_tune=-10
sample=Altos_Mmm_slurred_legato_PP_A3_+4.opus
</region>

<region>
end=131839
hivel=5
interval_point=76288
key=A3
lovel=5
post_interval_tune=-10
pre_interval_tune=-26
sample=Altos_Mmm_slurred_legato_PP_A3_+5.opus
</region>

<region>
end=131839
hivel=6
interval_point=74752
key=A3
lovel=6
post_interval_tune=-2
pre_interval_tune=-21
sample=Altos_Mmm_slurred_legato_PP_A3_+6.opus
</region>

<region>
end=131839
hivel=7
interval_point=77312
key=A3
lovel=7
post_interval_tune=-5
pre_interval_tune=-14
sample=Altos_Mmm_slurred_legato_PP_A3_+7.opus
</region>

<region>
end=131839
hivel=8
interval_point=71680
key=A3
lovel=8
post_interval_tune=+16
pre_interval_tune=-11
sample=Altos_Mmm_slurred_legato_PP_A3_+8.opus
</region>

<region>
end=131839
hivel=9
interval_point=69632
key=A3
lovel=9
post_interval_tune=+4
pre_interval_tune=-13
sample=Altos_Mmm_slurred_legato_PP_A3_+9.opus
</region>

<region>
end=131839
hivel=10
interval_point=74240
key=A3
lovel=10
post_interval_tune=+8
pre_interval_tune=-22
sample=Altos_Mmm_slurred_legato_PP_A3_+10.opus
</region>

<region>
end=131839
hivel=11
interval_point=74752
key=A3
lovel=11
post_interval_tune=-12
pre_interval_tune=-36
sample=Altos_Mmm_slurred_legato_PP_A3_+11.opus
</region>

<region>
end=131839
hivel=12
interval_point=76288
key=A3
lovel=12
post_interval_tune=-4
pre_interval_tune=-17
sample=Altos_Mmm_slurred_legato_PP_A3_+12.opus
</region>

<region>
end=120000
hivel=13
interval_point=72192
key=A4
lovel=13
post_interval_tune=-9
pre_interval_tune=+11
sample=Altos_Mmm_slurred_legato_PP_A4_-1.opus
</region>

<region>
end=120000
hivel=14
interval_point=67584
key=A4
lovel=14
post_interval_tune=-1
pre_interval_tune=+13
sample=Altos_Mmm_slurred_legato_PP_A4_-2.opus
</region>

<region>
end=120000
hivel=15
interval_point=67584
key=A4
lovel=15
post_interval_tune=+2
pre_interval_tune=+7
sample=Altos_Mmm_slurred_legato_PP_A4_-3.opus
</region>

<region>
end=120000
hivel=16
interval_point=69632
key=A4
lovel=16
post_interval_tune=-4
pre_interval_tune=+3
sample=Altos_Mmm_slurred_legato_PP_A4_-4.opus
</region>

<region>
end=120000
hivel=17
interval_point=69632
key=A4
lovel=17
post_interval_tune=-1
pre_interval_tune=+5
sample=Altos_Mmm_slurred_legato_PP_A4_-5.opus
</region>

<region>
end=120000
hivel=18
interval_point=67072
key=A4
lovel=18
post_interval_tune=+7
pre_interval_tune=+3
sample=Altos_Mmm_slurred_legato_PP_A4_-6.opus
</region>

<region>
end=120000
hivel=19
interval_point=72704
key=A4
lovel=19
post_interval_tune=+11
pre_interval_tune=+10
sample=Altos_Mmm_slurred_legato_PP_A4_-7.opus
</region>

<region>
end=120000
hivel=20
interval_point=67584
key=A4
lovel=20
post_interval_tune=-5
pre_interval_tune=+5
sample=Altos_Mmm_slurred_legato_PP_A4_-8.opus
</region>

<region>
end=131839
hivel=1
interval_point=79360
key=A4
lovel=1
post_interval_tune=+14
pre_interval_tune=-4
sample=Altos_Mmm_slurred_legato_PP_A4_+1.opus
</region>

<region>
end=131839
hivel=2
interval_point=71680
key=A4
lovel=2
post_interval_tune=+15
pre_interval_tune=+3
sample=Altos_Mmm_slurred_legato_PP_A4_+2.opus
</region>

<region>
end=131839
hivel=3
interval_point=77312
key=A4
lovel=3
post_interval_tune=0
pre_interval_tune=+4
sample=Altos_Mmm_slurred_legato_PP_A4_+3.opus
</region>

<region>
end=131839
hivel=4
interval_point=75776
key=A4
lovel=4
post_interval_tune=+3
pre_interval_tune=+12
sample=Altos_Mmm_slurred_legato_PP_A4_+4.opus
</region>

<region>
end=131839
hivel=5
interval_point=72192
key=A4
lovel=5
post_interval_tune=+4
pre_interval_tune=+2
sample=Altos_Mmm_slurred_legato_PP_A4_+5.opus
</region>

<region>
end=131839
hivel=6
interval_point=72704
key=A4
lovel=6
post_interval_tune=+2
pre_interval_tune=-3
sample=Altos_Mmm_slurred_legato_PP_A4_+6.opus
</region>

<region>
end=131839
hivel=7
interval_point=71680
key=A4
lovel=7
post_interval_tune=+8
pre_interval_tune=+20
sample=Altos_Mmm_slurred_legato_PP_A4_+7.opus
</region>

<region>
end=131839
hivel=8
interval_point=75264
key=A4
lovel=8
post_interval_tune=+10
pre_interval_tune=+14
sample=Altos_Mmm_slurred_legato_PP_A4_+8.opus
</region>

<region>
end=120000
hivel=13
interval_point=65536
key=B3
lovel=13
post_interval_tune=-17
pre_interval_tune=+1
sample=Altos_Mmm_slurred_legato_PP_B3_-1.opus
</region>

<region>
end=120000
hivel=14
interval_point=71168
key=B3
lovel=14
post_interval_tune=-20
pre_interval_tune=-1
sample=Altos_Mmm_slurred_legato_PP_B3_-2.opus
</region>

<region>
end=120000
hivel=15
interval_point=68096
key=B3
lovel=15
post_interval_tune=-8
pre_interval_tune=-5
sample=Altos_Mmm_slurred_legato_PP_B3_-3.opus
</region>

<region>
end=120000
hivel=16
interval_point=66048
key=B3
lovel=16
post_interval_tune=-15
pre_interval_tune=-7
sample=Altos_Mmm_slurred_legato_PP_B3_-4.opus
</region>

<region>
end=120000
hivel=17
interval_point=67072
key=B3
lovel=17
post_interval_tune=-4
pre_interval_tune=-5
sample=Altos_Mmm_slurred_legato_PP_B3_-5.opus
</region>

<region>
end=120000
hivel=18
interval_point=66048
key=B3
lovel=18
post_interval_tune=-5
pre_interval_tune=-3
sample=Altos_Mmm_slurred_legato_PP_B3_-6.opus
</region>

<region>
end=120000
hivel=19
interval_point=65024
key=B3
lovel=19
post_interval_tune=-11
pre_interval_tune=-3
sample=Altos_Mmm_slurred_legato_PP_B3_-7.opus
</region>

<region>
end=120000
hivel=20
interval_point=67584
key=B3
lovel=20
post_interval_tune=-2
pre_interval_tune=+4
sample=Altos_Mmm_slurred_legato_PP_B3_-8.opus
</region>

<region>
end=120000
hivel=21
interval_point=65024
key=B3
lovel=21
post_interval_tune=-11
pre_interval_tune=-9
sample=Altos_Mmm_slurred_legato_PP_B3_-9.opus
</region>

<region>
end=120000
hivel=22
interval_point=66048
key=B3
lovel=22
post_interval_tune=+9
pre_interval_tune=+7
sample=Altos_Mmm_slurred_legato_PP_B3_-10.opus
</region>

<region>
end=120000
hivel=23
interval_point=65536
key=B3
lovel=23
post_interval_tune=+4
pre_interval_tune=+15
sample=Altos_Mmm_slurred_legato_PP_B3_-11.opus
</region>

<region>
end=120000
hivel=24
interval_point=65536
key=B3
lovel=24
post_interval_tune=-3
pre_interval_tune=+4
sample=Altos_Mmm_slurred_legato_PP_B3_-12.opus
</region>

<region>
end=131839
hivel=1
interval_point=74752
key=B3
lovel=1
post_interval_tune=+7
pre_interval_tune=-17
sample=Altos_Mmm_slurred_legato_PP_B3_+1.opus
</region>

<region>
end=131839
hivel=2
interval_point=76800
key=B3
lovel=2
post_interval_tune=+4
pre_interval_tune=-10
sample=Altos_Mmm_slurred_legato_PP_B3_+2.opus
</region>

<region>
end=131839
hivel=3
interval_point=75776
key=B3
lovel=3
post_interval_tune=+2
pre_interval_tune=-10
sample=Altos_Mmm_slurred_legato_PP_B3_+3.opus
</region>

<region>
end=131839
hivel=4
interval_point=76288
key=B3
lovel=4
post_interval_tune=+2
pre_interval_tune=-7
sample=Altos_Mmm_slurred_legato_PP_B3_+4.opus
</region>

<region>
end=131839
hivel=5
interval_point=83456
key=B3
lovel=5
post_interval_tune=-3
pre_interval_tune=-8
sample=Altos_Mmm_slurred_legato_PP_B3_+5.opus
</region>

<region>
end=131839
hivel=6
interval_point=79360
key=B3
lovel=6
post_interval_tune=+7
pre_interval_tune=-8
sample=Altos_Mmm_slurred_legato_PP_B3_+6.opus
</region>

<region>
end=131839
hivel=7
interval_point=80896
key=B3
lovel=7
post_interval_tune=+2
pre_interval_tune=-5
sample=Altos_Mmm_slurred_legato_PP_B3_+7.opus
</region>

<region>
end=131839
hivel=8
interval_point=74240
key=B3
lovel=8
post_interval_tune=+6
pre_interval_tune=-9
sample=Altos_Mmm_slurred_legato_PP_B3_+8.opus
</region>

<region>
end=131839
hivel=9
interval_point=79360
key=B3
lovel=9
post_interval_tune=-15
pre_interval_tune=+9
sample=Altos_Mmm_slurred_legato_PP_B3_+9.opus
</region>

<region>
end=131839
hivel=10
interval_point=84480
key=B3
lovel=10
post_interval_tune=+6
pre_interval_tune=+2
sample=Altos_Mmm_slurred_legato_PP_B3_+10.opus
</region>

<region>
end=131839
hivel=11
interval_point=73728
key=B3
lovel=11
post_interval_tune=+15
pre_interval_tune=-2
sample=Altos_Mmm_slurred_legato_PP_B3_+11.opus
</region>

<region>
end=131839
hivel=12
interval_point=70144
key=B3
lovel=12
post_interval_tune=+7
pre_interval_tune=+1
sample=Altos_Mmm_slurred_legato_PP_B3_+12.opus
</region>

<region>
end=120000
hivel=13
interval_point=72704
key=B4
lovel=13
post_interval_tune=-4
pre_interval_tune=+17
sample=Altos_Mmm_slurred_legato_PP_B4_-1.opus
</region>

<region>
end=120000
hivel=14
interval_point=72192
key=B4
lovel=14
post_interval_tune=-6
pre_interval_tune=+15
sample=Altos_Mmm_slurred_legato_PP_B4_-2.opus
</region>

<region>
end=120000
hivel=15
interval_point=66560
key=B4
lovel=15
post_interval_tune=+6
pre_interval_tune=+12
sample=Altos_Mmm_slurred_legato_PP_B4_-3.opus
</region>

<region>
end=120000
hivel=16
interval_point=68096
key=B4
lovel=16
post_interval_tune=-3
pre_interval_tune=+15
sample=Altos_Mmm_slurred_legato_PP_B4_-4.opus
</region>

<region>
end=120000
hivel=17
interval_point=70144
key=B4
lovel=17
post_interval_tune=+4
pre_interval_tune=-5
sample=Altos_Mmm_slurred_legato_PP_B4_-5.opus
</region>

<region>
end=120000
hivel=18
interval_point=69632
key=B4
lovel=18
post_interval_tune=+16
pre_interval_tune=-8
sample=Altos_Mmm_slurred_legato_PP_B4_-6.opus
</region>

<region>
end=131839
hivel=1
interval_point=77312
key=B4
lovel=1
post_interval_tune=+31
pre_interval_tune=-2
sample=Altos_Mmm_slurred_legato_PP_B4_+1.opus
</region>

<region>
end=131839
hivel=2
interval_point=79360
key=B4
lovel=2
post_interval_tune=+12
pre_interval_tune=+6
sample=Altos_Mmm_slurred_legato_PP_B4_+2.opus
</region>

<region>
end=131839
hivel=3
interval_point=72192
key=B4
lovel=3
post_interval_tune=+10
pre_interval_tune=+12
sample=Altos_Mmm_slurred_legato_PP_B4_+3.opus
</region>

<region>
end=131839
hivel=4
interval_point=74240
key=B4
lovel=4
post_interval_tune=+13
pre_interval_tune=+17
sample=Altos_Mmm_slurred_legato_PP_B4_+4.opus
</region>

<region>
end=131839
hivel=5
interval_point=74752
key=B4
lovel=5
post_interval_tune=+30
pre_interval_tune=+9
sample=Altos_Mmm_slurred_legato_PP_B4_+5.opus
</region>

<region>
end=131839
hivel=6
interval_point=71168
key=B4
lovel=6
post_interval_tune=-13
pre_interval_tune=+10
sample=Altos_Mmm_slurred_legato_PP_B4_+6.opus
</region>

<region>
end=120000
hivel=13
interval_point=69632
key=C#4
lovel=13
post_interval_tune=-22
pre_interval_tune=-6
sample=Altos_Mmm_slurred_legato_PP_C#4_-1.opus
</region>

<region>
end=120000
hivel=14
interval_point=69632
key=C#4
lovel=14
post_interval_tune=-29
pre_interval_tune=-5
sample=Altos_Mmm_slurred_legato_PP_C#4_-2.opus
</region>

<region>
end=120000
hivel=15
interval_point=68608
key=C#4
lovel=15
post_interval_tune=-16
pre_interval_tune=-11
sample=Altos_Mmm_slurred_legato_PP_C#4_-3.opus
</region>

<region>
end=120000
hivel=16
interval_point=67584
key=C#4
lovel=16
post_interval_tune=0
pre_interval_tune=-5
sample=Altos_Mmm_slurred_legato_PP_C#4_-4.opus
</region>

<region>
end=120000
hivel=17
interval_point=68096
key=C#4
lovel=17
post_interval_tune=-8
pre_interval_tune=0
sample=Altos_Mmm_slurred_legato_PP_C#4_-5.opus
</region>

<region>
end=120000
hivel=18
interval_point=70144
key=C#4
lovel=18
post_interval_tune=-15
pre_interval_tune=+4
sample=Altos_Mmm_slurred_legato_PP_C#4_-6.opus
</region>

<region>
end=120000
hivel=19
interval_point=63488
key=C#4
lovel=19
post_interval_tune=-8
pre_interval_tune=+2
sample=Altos_Mmm_slurred_legato_PP_C#4_-7.opus
</region>

<region>
end=120000
hivel=20
interval_point=69120
key=C#4
lovel=20
post_interval_tune=+2
pre_interval_tune=-1
sample=Altos_Mmm_slurred_legato_PP_C#4_-8.opus
</region>

<region>
end=120000
hivel=21
interval_point=67584
key=C#4
lovel=21
post_interval_tune=+1
pre_interval_tune=+1
sample=Altos_Mmm_slurred_legato_PP_C#4_-9.opus
</region>

<region>
end=120000
hivel=22
interval_point=65024
key=C#4
lovel=22
post_interval_tune=-20
pre_interval_tune=+10
sample=Altos_Mmm_slurred_legato_PP_C#4_-10.opus
</region>

<region>
end=120000
hivel=23
interval_point=72192
key=C#4
lovel=23
post_interval_tune=-7
pre_interval_tune=+3
sample=Altos_Mmm_slurred_legato_PP_C#4_-11.opus
</region>

<region>
end=120000
hivel=24
interval_point=62464
key=C#4
lovel=24
post_interval_tune=+11
pre_interval_tune=-7
sample=Altos_Mmm_slurred_legato_PP_C#4_-12.opus
</region>

<region>
end=131839
hivel=1
interval_point=70656
key=C#4
lovel=1
post_interval_tune=+2
pre_interval_tune=-13
sample=Altos_Mmm_slurred_legato_PP_C#4_+1.opus
</region>

<region>
end=131839
hivel=2
interval_point=71168
key=C#4
lovel=2
post_interval_tune=-6
pre_interval_tune=-9
sample=Altos_Mmm_slurred_legato_PP_C#4_+2.opus
</region>

<region>
end=131839
hivel=3
interval_point=72192
key=C#4
lovel=3
post_interval_tune=-18
pre_interval_tune=-14
sample=Altos_Mmm_slurred_legato_PP_C#4_+3.opus
</region>

<region>
end=131839
hivel=4
interval_point=75264
key=C#4
lovel=4
post_interval_tune=-6
pre_interval_tune=-7
sample=Altos_Mmm_slurred_legato_PP_C#4_+4.opus
</region>

<region>
end=131839
hivel=5
interval_point=73216
key=C#4
lovel=5
post_interval_tune=-6
pre_interval_tune=-4
sample=Altos_Mmm_slurred_legato_PP_C#4_+5.opus
</region>

<region>
end=131839
hivel=6
interval_point=76288
key=C#4
lovel=6
post_interval_tune=+7
pre_interval_tune=-6
sample=Altos_Mmm_slurred_legato_PP_C#4_+6.opus
</region>

<region>
end=131839
hivel=7
interval_point=76800
key=C#4
lovel=7
post_interval_tune=-5
pre_interval_tune=-5
sample=Altos_Mmm_slurred_legato_PP_C#4_+7.opus
</region>

<region>
end=131839
hivel=8
interval_point=75264
key=C#4
lovel=8
post_interval_tune=+6
pre_interval_tune=-12
sample=Altos_Mmm_slurred_legato_PP_C#4_+8.opus
</region>

<region>
end=131839
hivel=9
interval_point=73728
key=C#4
lovel=9
post_interval_tune=+5
pre_interval_tune=+6
sample=Altos_Mmm_slurred_legato_PP_C#4_+9.opus
</region>

<region>
end=131839
hivel=10
interval_point=73728
key=C#4
lovel=10
post_interval_tune=+7
pre_interval_tune=-4
sample=Altos_Mmm_slurred_legato_PP_C#4_+10.opus
</region>

<region>
end=131839
hivel=11
interval_point=73216
key=C#4
lovel=11
post_interval_tune=+11
pre_interval_tune=-7
sample=Altos_Mmm_slurred_legato_PP_C#4_+11.opus
</region>

<region>
end=131839
hivel=12
interval_point=77312
key=C#4
lovel=12
post_interval_tune=-1
pre_interval_tune=+5
sample=Altos_Mmm_slurred_legato_PP_C#4_+12.opus
</region>

<region>
end=120000
hivel=13
interval_point=68608
key=C#5
lovel=13
post_interval_tune=-21
pre_interval_tune=+9
sample=Altos_Mmm_slurred_legato_PP_C#5_-1.opus
</region>

<region>
end=120000
hivel=14
interval_point=70144
key=C#5
lovel=14
post_interval_tune=-8
pre_interval_tune=+9
sample=Altos_Mmm_slurred_legato_PP_C#5_-2.opus
</region>

<region>
end=120000
hivel=15
interval_point=67584
key=C#5
lovel=15
post_interval_tune=-13
pre_interval_tune=-1
sample=Altos_Mmm_slurred_legato_PP_C#5_-3.opus
</region>

<region>
end=120000
hivel=16
interval_point=73216
key=C#5
lovel=16
post_interval_tune=-9
pre_interval_tune=0
sample=Altos_Mmm_slurred_legato_PP_C#5_-4.opus
</region>

<region>
end=131839
hivel=1
interval_point=75776
key=C#5
lovel=1
post_interval_tune=+15
pre_interval_tune=-6
sample=Altos_Mmm_slurred_legato_PP_C#5_+1.opus
</region>

<region>
end=131839
hivel=2
interval_point=70144
key=C#5
lovel=2
post_interval_tune=+8
pre_interval_tune=+2
sample=Altos_Mmm_slurred_legato_PP_C#5_+2.opus
</region>

<region>
end=131839
hivel=3
interval_point=71168
key=C#5
lovel=3
post_interval_tune=-4
pre_interval_tune=-4
sample=Altos_Mmm_slurred_legato_PP_C#5_+3.opus
</region>

<region>
end=131839
hivel=4
interval_point=71680
key=C#5
lovel=4
post_interval_tune=+6
pre_interval_tune=-6
sample=Altos_Mmm_slurred_legato_PP_C#5_+4.opus
</region>

<region>
end=120000
hikey=C4
hivel=13
interval_point=72192
lokey=C4
lovel=13
post_interval_tune=-26
pre_interval_tune=-4
sample=Altos_Mmm_slurred_legato_PP_C4_-1.opus
</region>

<region>
end=120000
hikey=C4
hivel=14
interval_point=68096
lokey=C4
lovel=14
post_interval_tune=-17
pre_interval_tune=-3
sample=Altos_Mmm_slurred_legato_PP_C4_-2.opus
</region>

<region>
end=120000
hikey=C4
hivel=15
interval_point=74240
lokey=C4
lovel=15
post_interval_tune=-8
pre_interval_tune=-10
sample=Altos_Mmm_slurred_legato_PP_C4_-3.opus
</region>

<region>
end=120000
hikey=C4
hivel=16
interval_point=65024
lokey=C4
lovel=16
post_interval_tune=-3
pre_interval_tune=-1
sample=Altos_Mmm_slurred_legato_PP_C4_-4.opus
</region>

<region>
end=120000
hikey=C4
hivel=17
interval_point=64512
lokey=C4
lovel=17
post_interval_tune=-7
pre_interval_tune=-6
sample=Altos_Mmm_slurred_legato_PP_C4_-5.opus
</region>

<region>
end=120000
hikey=C4
hivel=18
interval_point=68096
lokey=C4
lovel=18
post_interval_tune=+5
pre_interval_tune=+1
sample=Altos_Mmm_slurred_legato_PP_C4_-6.opus
</region>

<region>
end=120000
hikey=C4
hivel=19
interval_point=61440
lokey=C4
lovel=19
post_interval_tune=+3
pre_interval_tune=-6
sample=Altos_Mmm_slurred_legato_PP_C4_-7.opus
</region>

<region>
end=120000
hikey=C4
hivel=20
interval_point=66048
lokey=C4
lovel=20
post_interval_tune=+13
pre_interval_tune=+5
sample=Altos_Mmm_slurred_legato_PP_C4_-8.opus
</region>

<region>
end=120000
hikey=C4
hivel=21
interval_point=64000
lokey=C4
lovel=21
post_interval_tune=+10
pre_interval_tune=0
sample=Altos_Mmm_slurred_legato_PP_C4_-9.opus
</region>

<region>
end=120000
hikey=C4
hivel=22
interval_point=65024
lokey=C4
lovel=22
post_interval_tune=+4
pre_interval_tune=+1
sample=Altos_Mmm_slurred_legato_PP_C4_-10.opus
</region>

<region>
end=120000
hikey=C4
hivel=23
interval_point=68096
lokey=C4
lovel=23
post_interval_tune=-6
pre_interval_tune=+13
sample=Altos_Mmm_slurred_legato_PP_C4_-11.opus
</region>

<region>
end=120000
hikey=C4
hivel=24
interval_point=68608
lokey=C4
lovel=24
post_interval_tune=-5
pre_interval_tune=+2
sample=Altos_Mmm_slurred_legato_PP_C4_-12.opus
</region>

<region>
end=131839
hikey=C4
hivel=1
interval_point=71168
lokey=C4
lovel=1
post_interval_tune=+7
pre_interval_tune=-21
sample=Altos_Mmm_slurred_legato_PP_C4_+1.opus
</region>

<region>
end=131839
hikey=C4
hivel=2
interval_point=73216
lokey=C4
lovel=2
post_interval_tune=+3
pre_interval_tune=0
sample=Altos_Mmm_slurred_legato_PP_C4_+2.opus
</region>

<region>
end=131839
hikey=C4
hivel=3
interval_point=73728
lokey=C4
lovel=3
post_interval_tune=-6
pre_interval_tune=-2
sample=Altos_Mmm_slurred_legato_PP_C4_+3.opus
</region>

<region>
end=131839
hikey=C4
hivel=4
interval_point=73728
lokey=C4
lovel=4
post_interval_tune=0
pre_interval_tune=+22
sample=Altos_Mmm_slurred_legato_PP_C4_+4.opus
</region>

<region>
end=131839
hikey=C4
hivel=5
interval_point=71168
lokey=C4
lovel=5
post_interval_tune=-7
pre_interval_tune=+13
sample=Altos_Mmm_slurred_legato_PP_C4_+5.opus
</region>

<region>
end=131839
hikey=C4
hivel=6
interval_point=79872
lokey=C4
lovel=6
post_interval_tune=+1
pre_interval_tune=+5
sample=Altos_Mmm_slurred_legato_PP_C4_+6.opus
</region>

<region>
end=131839
hikey=C4
hivel=7
interval_point=71680
lokey=C4
lovel=7
post_interval_tune=-6
pre_interval_tune=+17
sample=Altos_Mmm_slurred_legato_PP_C4_+7.opus
</region>

<region>
end=131839
hikey=C4
hivel=8
interval_point=78848
lokey=C4
lovel=8
post_interval_tune=+11
pre_interval_tune=+8
sample=Altos_Mmm_slurred_legato_PP_C4_+8.opus
</region>

<region>
end=131839
hikey=C4
hivel=9
interval_point=73728
lokey=C4
lovel=9
post_interval_tune=+11
pre_interval_tune=+1
sample=Altos_Mmm_slurred_legato_PP_C4_+9.opus
</region>

<region>
end=131839
hikey=C4
hivel=10
interval_point=71680
lokey=C4
lovel=10
post_interval_tune=+13
pre_interval_tune=+9
sample=Altos_Mmm_slurred_legato_PP_C4_+10.opus
</region>

<region>
end=131839
hikey=C4
hivel=11
interval_point=80384
lokey=C4
lovel=11
post_interval_tune=+19
pre_interval_tune=0
sample=Altos_Mmm_slurred_legato_PP_C4_+11.opus
</region>

<region>
end=131839
hikey=C4
hivel=12
interval_point=74240
lokey=C4
lovel=12
post_interval_tune=+2
pre_interval_tune=+2
sample=Altos_Mmm_slurred_legato_PP_C4_+12.opus
</region>

<region>
end=120000
hivel=13
interval_point=69632
key=C5
lovel=13
post_interval_tune=-21
pre_interval_tune=-1
sample=Altos_Mmm_slurred_legato_PP_C5_-1.opus
</region>

<region>
end=120000
hivel=14
interval_point=71680
key=C5
lovel=14
post_interval_tune=-9
pre_interval_tune=-5
sample=Altos_Mmm_slurred_legato_PP_C5_-2.opus
</region>

<region>
end=120000
hivel=15
interval_point=66048
key=C5
lovel=15
post_interval_tune=-1
pre_interval_tune=+26
sample=Altos_Mmm_slurred_legato_PP_C5_-3.opus
</region>

<region>
end=120000
hivel=16
interval_point=68096
key=C5
lovel=16
post_interval_tune=-10
pre_interval_tune=+5
sample=Altos_Mmm_slurred_legato_PP_C5_-4.opus
</region>

<region>
end=120000
hivel=17
interval_point=69632
key=C5
lovel=17
post_interval_tune=-10
pre_interval_tune=-4
sample=Altos_Mmm_slurred_legato_PP_C5_-5.opus
</region>

<region>
end=131839
hivel=1
interval_point=77312
key=C5
lovel=1
post_interval_tune=+4
pre_interval_tune=-9
sample=Altos_Mmm_slurred_legato_PP_C5_+1.opus
</region>

<region>
end=131839
hivel=2
interval_point=76800
key=C5
lovel=2
post_interval_tune=+6
pre_interval_tune=-2
sample=Altos_Mmm_slurred_legato_PP_C5_+2.opus
</region>

<region>
end=131839
hivel=3
interval_point=72192
key=C5
lovel=3
post_interval_tune=+28
pre_interval_tune=-2
sample=Altos_Mmm_slurred_legato_PP_C5_+3.opus
</region>

<region>
end=131839
hivel=4
interval_point=73728
key=C5
lovel=4
post_interval_tune=+11
pre_interval_tune=-11
sample=Altos_Mmm_slurred_legato_PP_C5_+4.opus
</region>

<region>
end=131839
hivel=5
interval_point=70656
key=C5
lovel=5
post_interval_tune=-6
pre_interval_tune=-3
sample=Altos_Mmm_slurred_legato_PP_C5_+5.opus
</region>

<region>
end=120000
hivel=13
interval_point=78848
key=D#4
lovel=13
post_interval_tune=-18
pre_interval_tune=-9
sample=Altos_Mmm_slurred_legato_PP_D#4_-1.opus
</region>

<region>
end=120000
hivel=14
interval_point=67584
key=D#4
lovel=14
post_interval_tune=-8
pre_interval_tune=-8
sample=Altos_Mmm_slurred_legato_PP_D#4_-2.opus
</region>

<region>
end=120000
hivel=15
interval_point=67584
key=D#4
lovel=15
post_interval_tune=-13
pre_interval_tune=-8
sample=Altos_Mmm_slurred_legato_PP_D#4_-3.opus
</region>

<region>
end=120000
hivel=16
interval_point=74240
key=D#4
lovel=16
post_interval_tune=-17
pre_interval_tune=-2
sample=Altos_Mmm_slurred_legato_PP_D#4_-4.opus
</region>

<region>
end=120000
hivel=17
interval_point=72704
key=D#4
lovel=17
post_interval_tune=-3
pre_interval_tune=-3
sample=Altos_Mmm_slurred_legato_PP_D#4_-5.opus
</region>

<region>
end=120000
hivel=18
interval_point=70144
key=D#4
lovel=18
post_interval_tune=-13
pre_interval_tune=-2
sample=Altos_Mmm_slurred_legato_PP_D#4_-6.opus
</region>

<region>
end=120000
hivel=19
interval_point=71680
key=D#4
lovel=19
post_interval_tune=-3
pre_interval_tune=+8
sample=Altos_Mmm_slurred_legato_PP_D#4_-7.opus
</region>

<region>
end=120000
hivel=20
interval_point=69632
key=D#4
lovel=20
post_interval_tune=-3
pre_interval_tune=+22
sample=Altos_Mmm_slurred_legato_PP_D#4_-8.opus
</region>

<region>
end=120000
hivel=21
interval_point=74240
key=D#4
lovel=21
post_interval_tune=-12
pre_interval_tune=+29
sample=Altos_Mmm_slurred_legato_PP_D#4_-9.opus
</region>

<region>
end=120000
hivel=22
interval_point=73216
key=D#4
lovel=22
post_interval_tune=-20
pre_interval_tune=+13
sample=Altos_Mmm_slurred_legato_PP_D#4_-10.opus
</region>

<region>
end=120000
hivel=23
interval_point=68608
key=D#4
lovel=23
post_interval_tune=-9
pre_interval_tune=+2
sample=Altos_Mmm_slurred_legato_PP_D#4_-11.opus
</region>

<region>
end=120000
hivel=24
interval_point=65024
key=D#4
lovel=24
post_interval_tune=-19
pre_interval_tune=-14
sample=Altos_Mmm_slurred_legato_PP_D#4_-12.opus
</region>

<region>
end=131839
hivel=1
interval_point=76288
key=D#4
lovel=1
post_interval_tune=-9
pre_interval_tune=-13
sample=Altos_Mmm_slurred_legato_PP_D#4_+1.opus
</region>

<region>
end=131839
hivel=2
interval_point=75264
key=D#4
lovel=2
post_interval_tune=-3
pre_interval_tune=-16
sample=Altos_Mmm_slurred_legato_PP_D#4_+2.opus
</region>

<region>
end=131839
hivel=3
interval_point=76288
key=D#4
lovel=3
post_interval_tune=-9
pre_interval_tune=-19
sample=Altos_Mmm_slurred_legato_PP_D#4_+3.opus
</region>

<region>
end=131839
hivel=4
interval_point=76800
key=D#4
lovel=4
post_interval_tune=-4
pre_interval_tune=-5
sample=Altos_Mmm_slurred_legato_PP_D#4_+4.opus
</region>

<region>
end=131839
hivel=5
interval_point=78336
key=D#4
lovel=5
post_interval_tune=0
pre_interval_tune=+2
sample=Altos_Mmm_slurred_legato_PP_D#4_+5.opus
</region>

<region>
end=131839
hivel=6
interval_point=78848
key=D#4
lovel=6
post_interval_tune=-3
pre_interval_tune=+1
sample=Altos_Mmm_slurred_legato_PP_D#4_+6.opus
</region>

<region>
end=131839
hivel=7
interval_point=76800
key=D#4
lovel=7
post_interval_tune=+15
pre_interval_tune=-4
sample=Altos_Mmm_slurred_legato_PP_D#4_+7.opus
</region>

<region>
end=131839
hivel=8
interval_point=74752
key=D#4
lovel=8
post_interval_tune=+21
pre_interval_tune=-1
sample=Altos_Mmm_slurred_legato_PP_D#4_+8.opus
</region>

<region>
end=131839
hivel=9
interval_point=76288
key=D#4
lovel=9
post_interval_tune=+25
pre_interval_tune=-13
sample=Altos_Mmm_slurred_legato_PP_D#4_+9.opus
</region>

<region>
end=131839
hivel=10
interval_point=79360
key=D#4
lovel=10
post_interval_tune=+11
pre_interval_tune=-8
sample=Altos_Mmm_slurred_legato_PP_D#4_+10.opus
</region>

<region>
end=131839
hivel=11
interval_point=79360
key=D#4
lovel=11
post_interval_tune=+8
pre_interval_tune=-15
sample=Altos_Mmm_slurred_legato_PP_D#4_+11.opus
</region>

<region>
end=131839
hivel=12
interval_point=72192
key=D#4
lovel=12
post_interval_tune=-16
pre_interval_tune=-18
sample=Altos_Mmm_slurred_legato_PP_D#4_+12.opus
</region>

<region>
end=120000
hivel=13
interval_point=69632
key=D#5
lovel=13
post_interval_tune=-3
pre_interval_tune=+3
sample=Altos_Mmm_slurred_legato_PP_D#5_-1.opus
</region>

<region>
end=120000
hivel=14
interval_point=70144
key=D#5
lovel=14
post_interval_tune=+2
pre_interval_tune=+2
sample=Altos_Mmm_slurred_legato_PP_D#5_-2.opus
</region>

<region>
end=131839
hivel=1
interval_point=74752
key=D#5
lovel=1
post_interval_tune=+13
pre_interval_tune=-18
sample=Altos_Mmm_slurred_legato_PP_D#5_+1.opus
</region>

<region>
end=131839
hivel=2
interval_point=71680
key=D#5
lovel=2
post_interval_tune=+7
pre_interval_tune=+5
sample=Altos_Mmm_slurred_legato_PP_D#5_+2.opus
</region>

<region>
end=120000
hivel=13
interval_point=73728
key=D4
lovel=13
post_interval_tune=-15
pre_interval_tune=+1
sample=Altos_Mmm_slurred_legato_PP_D4_-1.opus
</region>

<region>
end=120000
hivel=14
interval_point=67072
key=D4
lovel=14
post_interval_tune=-10
pre_interval_tune=-2
sample=Altos_Mmm_slurred_legato_PP_D4_-2.opus
</region>

<region>
end=120000
hivel=15
interval_point=76800
key=D4
lovel=15
post_interval_tune=+7
pre_interval_tune=+1
sample=Altos_Mmm_slurred_legato_PP_D4_-3.opus
</region>

<region>
end=120000
hivel=16
interval_point=69632
key=D4
lovel=16
post_interval_tune=-7
pre_interval_tune=-5
sample=Altos_Mmm_slurred_legato_PP_D4_-4.opus
</region>

<region>
end=120000
hivel=17
interval_point=71168
key=D4
lovel=17
post_interval_tune=-5
pre_interval_tune=+5
sample=Altos_Mmm_slurred_legato_PP_D4_-5.opus
</region>

<region>
end=120000
hivel=18
interval_point=70656
key=D4
lovel=18
post_interval_tune=-6
pre_interval_tune=+2
sample=Altos_Mmm_slurred_legato_PP_D4_-6.opus
</region>

<region>
end=120000
hivel=19
interval_point=71168
key=D4
lovel=19
post_interval_tune=-2
pre_interval_tune=-2
sample=Altos_Mmm_slurred_legato_PP_D4_-7.opus
</region>

<region>
end=120000
hivel=20
interval_point=67072
key=D4
lovel=20
post_interval_tune=-19
pre_interval_tune=+1
sample=Altos_Mmm_slurred_legato_PP_D4_-8.opus
</region>

<region>
end=120000
hivel=21
interval_point=70656
key=D4
lovel=21
post_interval_tune=-5
pre_interval_tune=+4
sample=Altos_Mmm_slurred_legato_PP_D4_-9.opus
</region>

<region>
end=120000
hivel=22
interval_point=70656
key=D4
lovel=22
post_interval_tune=-31
pre_interval_tune=+8
sample=Altos_Mmm_slurred_legato_PP_D4_-10.opus
</region>

<region>
end=120000
hivel=23
interval_point=70144
key=D4
lovel=23
post_interval_tune=-17
pre_interval_tune=+7
sample=Altos_Mmm_slurred_legato_PP_D4_-11.opus
</region>

<region>
end=120000
hivel=24
interval_point=67584
key=D4
lovel=24
post_interval_tune=-5
pre_interval_tune=+4
sample=Altos_Mmm_slurred_legato_PP_D4_-12.opus
</region>

<region>
end=131839
hivel=1
interval_point=75264
key=D4
lovel=1
post_interval_tune=+1
pre_interval_tune=-9
sample=Altos_Mmm_slurred_legato_PP_D4_+1.opus
</region>

<region>
end=131839
hivel=2
interval_point=74752
key=D4
lovel=2
post_interval_tune=-4
pre_interval_tune=-2
sample=Altos_Mmm_slurred_legato_PP_D4_+2.opus
</region>

<region>
end=131839
hivel=3
interval_point=71680
key=D4
lovel=3
post_interval_tune=0
pre_interval_tune=+2
sample=Altos_Mmm_slurred_legato_PP_D4_+3.opus
</region>

<region>
end=131839
hivel=4
interval_point=76800
key=D4
lovel=4
post_interval_tune=-5
pre_interval_tune=+3
sample=Altos_Mmm_slurred_legato_PP_D4_+4.opus
</region>

<region>
end=131839
hivel=5
interval_point=73216
key=D4
lovel=5
post_interval_tune=+2
pre_interval_tune=+3
sample=Altos_Mmm_slurred_legato_PP_D4_+5.opus
</region>

<region>
end=131839
hivel=6
interval_point=76288
key=D4
lovel=6
post_interval_tune=+12
pre_interval_tune=0
sample=Altos_Mmm_slurred_legato_PP_D4_+6.opus
</region>

<region>
end=131839
hivel=7
interval_point=82432
key=D4
lovel=7
post_interval_tune=-8
pre_interval_tune=-8
sample=Altos_Mmm_slurred_legato_PP_D4_+7.opus
</region>

<region>
end=131839
hivel=8
interval_point=71680
key=D4
lovel=8
post_interval_tune=+7
pre_interval_tune=-12
sample=Altos_Mmm_slurred_legato_PP_D4_+8.opus
</region>

<region>
end=131839
hivel=9
interval_point=76288
key=D4
lovel=9
post_interval_tune=+10
pre_interval_tune=-9
sample=Altos_Mmm_slurred_legato_PP_D4_+9.opus
</region>

<region>
end=131839
hivel=10
interval_point=72192
key=D4
lovel=10
post_interval_tune=+14
pre_interval_tune=-6
sample=Altos_Mmm_slurred_legato_PP_D4_+10.opus
</region>

<region>
end=131839
hivel=11
interval_point=71168
key=D4
lovel=11
post_interval_tune=+10
pre_interval_tune=-11
sample=Altos_Mmm_slurred_legato_PP_D4_+11.opus
</region>

<region>
end=131839
hivel=12
interval_point=77312
key=D4
lovel=12
post_interval_tune=+8
pre_interval_tune=+1
sample=Altos_Mmm_slurred_legato_PP_D4_+12.opus
</region>

<region>
end=120000
hivel=13
interval_point=72704
key=D5
lovel=13
post_interval_tune=-5
pre_interval_tune=+12
sample=Altos_Mmm_slurred_legato_PP_D5_-1.opus
</region>

<region>
end=120000
hivel=14
interval_point=68096
key=D5
lovel=14
post_interval_tune=-10
pre_interval_tune=+10
sample=Altos_Mmm_slurred_legato_PP_D5_-2.opus
</region>

<region>
end=120000
hivel=15
interval_point=68096
key=D5
lovel=15
post_interval_tune=-11
pre_interval_tune=-5
sample=Altos_Mmm_slurred_legato_PP_D5_-3.opus
</region>

<region>
end=131839
hivel=1
interval_point=73216
key=D5
lovel=1
post_interval_tune=+23
pre_interval_tune=-2
sample=Altos_Mmm_slurred_legato_PP_D5_+1.opus
</region>

<region>
end=131839
hivel=2
interval_point=74240
key=D5
lovel=2
post_interval_tune=+2
pre_interval_tune=+6
sample=Altos_Mmm_slurred_legato_PP_D5_+2.opus
</region>

<region>
end=131839
hivel=3
interval_point=70144
key=D5
lovel=3
post_interval_tune=+13
pre_interval_tune=-2
sample=Altos_Mmm_slurred_legato_PP_D5_+3.opus
</region>

<region>
end=120000
hivel=13
interval_point=65536
key=E4
lovel=13
post_interval_tune=-22
pre_interval_tune=-5
sample=Altos_Mmm_slurred_legato_PP_E4_-1.opus
</region>

<region>
end=120000
hivel=14
interval_point=70144
key=E4
lovel=14
post_interval_tune=-14
pre_interval_tune=+2
sample=Altos_Mmm_slurred_legato_PP_E4_-2.opus
</region>

<region>
end=120000
hivel=15
interval_point=68608
key=E4
lovel=15
post_interval_tune=-7
pre_interval_tune=+7
sample=Altos_Mmm_slurred_legato_PP_E4_-3.opus
</region>

<region>
end=120000
hivel=16
interval_point=69632
key=E4
lovel=16
post_interval_tune=-17
pre_interval_tune=+8
sample=Altos_Mmm_slurred_legato_PP_E4_-4.opus
</region>

<region>
end=120000
hivel=17
interval_point=70656
key=E4
lovel=17
post_interval_tune=-17
pre_interval_tune=+1
sample=Altos_Mmm_slurred_legato_PP_E4_-5.opus
</region>

<region>
end=120000
hivel=18
interval_point=71680
key=E4
lovel=18
post_interval_tune=-6
pre_interval_tune=+3
sample=Altos_Mmm_slurred_legato_PP_E4_-6.opus
</region>

<region>
end=120000
hivel=19
interval_point=65536
key=E4
lovel=19
post_interval_tune=-20
pre_interval_tune=+7
sample=Altos_Mmm_slurred_legato_PP_E4_-7.opus
</region>

<region>
end=120000
hivel=20
interval_point=71168
key=E4
lovel=20
post_interval_tune=+5
pre_interval_tune=+13
sample=Altos_Mmm_slurred_legato_PP_E4_-8.opus
</region>

<region>
end=120000
hivel=21
interval_point=66048
key=E4
lovel=21
post_interval_tune=-7
pre_interval_tune=+5
sample=Altos_Mmm_slurred_legato_PP_E4_-9.opus
</region>

<region>
end=120000
hivel=22
interval_point=66560
key=E4
lovel=22
post_interval_tune=+5
pre_interval_tune=+18
sample=Altos_Mmm_slurred_legato_PP_E4_-10.opus
</region>

<region>
end=120000
hivel=23
interval_point=64512
key=E4
lovel=23
post_interval_tune=-5
pre_interval_tune=-4
sample=Altos_Mmm_slurred_legato_PP_E4_-11.opus
</region>

<region>
end=120000
hivel=24
interval_point=67072
key=E4
lovel=24
post_interval_tune=-13
pre_interval_tune=-2
sample=Altos_Mmm_slurred_legato_PP_E4_-12.opus
</region>

<region>
end=131839
hivel=1
interval_point=67072
key=E4
lovel=1
post_interval_tune=+2
pre_interval_tune=-11
sample=Altos_Mmm_slurred_legato_PP_E4_+1.opus
</region>

<region>
end=131839
hivel=2
interval_point=77312
key=E4
lovel=2
post_interval_tune=0
pre_interval_tune=-2
sample=Altos_Mmm_slurred_legato_PP_E4_+2.opus
</region>

<region>
end=131839
hivel=3
interval_point=74240
key=E4
lovel=3
post_interval_tune=+8
pre_interval_tune=-10
sample=Altos_Mmm_slurred_legato_PP_E4_+3.opus
</region>

<region>
end=131839
hivel=4
interval_point=74240
key=E4
lovel=4
post_interval_tune=+8
pre_interval_tune=+3
sample=Altos_Mmm_slurred_legato_PP_E4_+4.opus
</region>

<region>
end=131839
hivel=5
interval_point=74240
key=E4
lovel=5
post_interval_tune=+7
pre_interval_tune=-5
sample=Altos_Mmm_slurred_legato_PP_E4_+5.opus
</region>

<region>
end=131839
hivel=6
interval_point=75264
key=E4
lovel=6
post_interval_tune=+1
pre_interval_tune=+6
sample=Altos_Mmm_slurred_legato_PP_E4_+6.opus
</region>

<region>
end=131839
hivel=7
interval_point=74752
key=E4
lovel=7
post_interval_tune=+10
pre_interval_tune=+1
sample=Altos_Mmm_slurred_legato_PP_E4_+7.opus
</region>

<region>
end=131839
hivel=8
interval_point=74752
key=E4
lovel=8
post_interval_tune=+19
pre_interval_tune=+1
sample=Altos_Mmm_slurred_legato_PP_E4_+8.opus
</region>

<region>
end=131839
hivel=9
interval_point=72704
key=E4
lovel=9
post_interval_tune=0
pre_interval_tune=+8
sample=Altos_Mmm_slurred_legato_PP_E4_+9.opus
</region>

<region>
end=131839
hivel=10
interval_point=68608
key=E4
lovel=10
post_interval_tune=+28
pre_interval_tune=+18
sample=Altos_Mmm_slurred_legato_PP_E4_+10.opus
</region>

<region>
end=131839
hivel=11
interval_point=74752
key=E4
lovel=11
post_interval_tune=+16
pre_interval_tune=0
sample=Altos_Mmm_slurred_legato_PP_E4_+11.opus
</region>

<region>
end=131839
hivel=12
interval_point=78848
key=E4
lovel=12
post_interval_tune=-1
pre_interval_tune=-13
sample=Altos_Mmm_slurred_legato_PP_E4_+12.opus
</region>

<region>
end=120000
hivel=13
interval_point=75776
key=E5
lovel=13
post_interval_tune=-12
pre_interval_tune=-11
sample=Altos_Mmm_slurred_legato_PP_E5_-1.opus
</region>

<region>
end=131839
hivel=1
interval_point=73728
key=E5
lovel=1
post_interval_tune=-3
pre_interval_tune=-4
sample=Altos_Mmm_slurred_legato_PP_E5_+1.opus
</region>

<region>
end=120000
hivel=13
interval_point=76288
key=F#4
lovel=13
post_interval_tune=-9
pre_interval_tune=+11
sample=Altos_Mmm_slurred_legato_PP_F#4_-1.opus
</region>

<region>
end=120000
hivel=14
interval_point=70656
key=F#4
lovel=14
post_interval_tune=-3
pre_interval_tune=+18
sample=Altos_Mmm_slurred_legato_PP_F#4_-2.opus
</region>

<region>
end=120000
hivel=15
interval_point=73216
key=F#4
lovel=15
post_interval_tune=-2
pre_interval_tune=+10
sample=Altos_Mmm_slurred_legato_PP_F#4_-3.opus
</region>

<region>
end=120000
hivel=16
interval_point=72192
key=F#4
lovel=16
post_interval_tune=-1
pre_interval_tune=+18
sample=Altos_Mmm_slurred_legato_PP_F#4_-4.opus
</region>

<region>
end=120000
hivel=17
interval_point=70144
key=F#4
lovel=17
post_interval_tune=-10
pre_interval_tune=+12
sample=Altos_Mmm_slurred_legato_PP_F#4_-5.opus
</region>

<region>
end=120000
hivel=18
interval_point=69632
key=F#4
lovel=18
post_interval_tune=+4
pre_interval_tune=+17
sample=Altos_Mmm_slurred_legato_PP_F#4_-6.opus
</region>

<region>
end=120000
hivel=19
interval_point=68608
key=F#4
lovel=19
post_interval_tune=+4
pre_interval_tune=+10
sample=Altos_Mmm_slurred_legato_PP_F#4_-7.opus
</region>

<region>
end=120000
hivel=20
interval_point=66560
key=F#4
lovel=20
post_interval_tune=+13
pre_interval_tune=+3
sample=Altos_Mmm_slurred_legato_PP_F#4_-8.opus
</region>

<region>
end=120000
hivel=21
interval_point=64512
key=F#4
lovel=21
post_interval_tune=+11
pre_interval_tune=+2
sample=Altos_Mmm_slurred_legato_PP_F#4_-9.opus
</region>

<region>
end=120000
hivel=22
interval_point=68096
key=F#4
lovel=22
post_interval_tune=-11
pre_interval_tune=-18
sample=Altos_Mmm_slurred_legato_PP_F#4_-10.opus
</region>

<region>
end=120000
hivel=23
interval_point=70656
key=F#4
lovel=23
post_interval_tune=+18
pre_interval_tune=-1
sample=Altos_Mmm_slurred_legato_PP_F#4_-11.opus
</region>

<region>
end=131839
hivel=1
interval_point=71168
key=F#4
lovel=1
post_interval_tune=+15
pre_interval_tune=-7
sample=Altos_Mmm_slurred_legato_PP_F#4_+1.opus
</region>

<region>
end=131839
hivel=2
interval_point=72704
key=F#4
lovel=2
post_interval_tune=+25
pre_interval_tune=+1
sample=Altos_Mmm_slurred_legato_PP_F#4_+2.opus
</region>

<region>
end=131839
hivel=3
interval_point=72192
key=F#4
lovel=3
post_interval_tune=+12
pre_interval_tune=+6
sample=Altos_Mmm_slurred_legato_PP_F#4_+3.opus
</region>

<region>
end=131839
hivel=4
interval_point=78848
key=F#4
lovel=4
post_interval_tune=+8
pre_interval_tune=-1
sample=Altos_Mmm_slurred_legato_PP_F#4_+4.opus
</region>

<region>
end=131839
hivel=5
interval_point=70144
key=F#4
lovel=5
post_interval_tune=+18
pre_interval_tune=+8
sample=Altos_Mmm_slurred_legato_PP_F#4_+5.opus
</region>

<region>
end=131839
hivel=6
interval_point=72192
key=F#4
lovel=6
post_interval_tune=+23
pre_interval_tune=+9
sample=Altos_Mmm_slurred_legato_PP_F#4_+6.opus
</region>

<region>
end=131839
hivel=7
interval_point=71680
key=F#4
lovel=7
post_interval_tune=+12
pre_interval_tune=+8
sample=Altos_Mmm_slurred_legato_PP_F#4_+7.opus
</region>

<region>
end=131839
hivel=8
interval_point=79360
key=F#4
lovel=8
post_interval_tune=+8
pre_interval_tune=+24
sample=Altos_Mmm_slurred_legato_PP_F#4_+8.opus
</region>

<region>
end=131839
hivel=9
interval_point=74240
key=F#4
lovel=9
post_interval_tune=-1
pre_interval_tune=+16
sample=Altos_Mmm_slurred_legato_PP_F#4_+9.opus
</region>

<region>
end=131839
hivel=10
interval_point=79872
key=F#4
lovel=10
post_interval_tune=-9
pre_interval_tune=+10
sample=Altos_Mmm_slurred_legato_PP_F#4_+10.opus
</region>

<region>
end=131839
hivel=11
interval_point=72192
key=F#4
lovel=11
post_interval_tune=+16
pre_interval_tune=+3
sample=Altos_Mmm_slurred_legato_PP_F#4_+11.opus
</region>

<region>
end=120000
hivel=13
interval_point=77312
key=F4
lovel=13
post_interval_tune=-19
pre_interval_tune=+6
sample=Altos_Mmm_slurred_legato_PP_F4_-1.opus
</region>

<region>
end=120000
hivel=14
interval_point=67072
key=F4
lovel=14
post_interval_tune=-9
pre_interval_tune=+7
sample=Altos_Mmm_slurred_legato_PP_F4_-2.opus
</region>

<region>
end=120000
hivel=15
interval_point=70144
key=F4
lovel=15
post_interval_tune=-3
pre_interval_tune=-1
sample=Altos_Mmm_slurred_legato_PP_F4_-3.opus
</region>

<region>
end=120000
hivel=16
interval_point=67584
key=F4
lovel=16
post_interval_tune=-2
pre_interval_tune=-6
sample=Altos_Mmm_slurred_legato_PP_F4_-4.opus
</region>

<region>
end=120000
hivel=17
interval_point=72192
key=F4
lovel=17
post_interval_tune=+2
pre_interval_tune=-1
sample=Altos_Mmm_slurred_legato_PP_F4_-5.opus
</region>

<region>
end=120000
hivel=18
interval_point=69632
key=F4
lovel=18
post_interval_tune=-10
pre_interval_tune=+5
sample=Altos_Mmm_slurred_legato_PP_F4_-6.opus
</region>

<region>
end=120000
hivel=19
interval_point=69632
key=F4
lovel=19
post_interval_tune=0
pre_interval_tune=+6
sample=Altos_Mmm_slurred_legato_PP_F4_-7.opus
</region>

<region>
end=120000
hivel=20
interval_point=67584
key=F4
lovel=20
post_interval_tune=-8
pre_interval_tune=+10
sample=Altos_Mmm_slurred_legato_PP_F4_-8.opus
</region>

<region>
end=120000
hivel=21
interval_point=69632
key=F4
lovel=21
post_interval_tune=-18
pre_interval_tune=+13
sample=Altos_Mmm_slurred_legato_PP_F4_-9.opus
</region>

<region>
end=120000
hivel=22
interval_point=71168
key=F4
lovel=22
post_interval_tune=+3
pre_interval_tune=+5
sample=Altos_Mmm_slurred_legato_PP_F4_-10.opus
</region>

<region>
end=120000
hivel=23
interval_point=76288
key=F4
lovel=23
post_interval_tune=-5
pre_interval_tune=-2
sample=Altos_Mmm_slurred_legato_PP_F4_-11.opus
</region>

<region>
end=120000
hivel=24
interval_point=65536
key=F4
lovel=24
post_interval_tune=-15
pre_interval_tune=-4
sample=Altos_Mmm_slurred_legato_PP_F4_-12.opus
</region>

<region>
end=131839
hivel=1
interval_point=73728
key=F4
lovel=1
post_interval_tune=+4
pre_interval_tune=-9
sample=Altos_Mmm_slurred_legato_PP_F4_+1.opus
</region>

<region>
end=131839
hivel=2
interval_point=75776
key=F4
lovel=2
post_interval_tune=+11
pre_interval_tune=-2
sample=Altos_Mmm_slurred_legato_PP_F4_+2.opus
</region>

<region>
end=131839
hivel=3
interval_point=74752
key=F4
lovel=3
post_interval_tune=+14
pre_interval_tune=0
sample=Altos_Mmm_slurred_legato_PP_F4_+3.opus
</region>

<region>
end=131839
hivel=4
interval_point=74240
key=F4
lovel=4
post_interval_tune=0
pre_interval_tune=+12
sample=Altos_Mmm_slurred_legato_PP_F4_+4.opus
</region>

<region>
end=131839
hivel=5
interval_point=82432
key=F4
lovel=5
post_interval_tune=0
pre_interval_tune=+8
sample=Altos_Mmm_slurred_legato_PP_F4_+5.opus
</region>

<region>
end=131839
hivel=6
interval_point=77312
key=F4
lovel=6
post_interval_tune=+6
pre_interval_tune=-2
sample=Altos_Mmm_slurred_legato_PP_F4_+6.opus
</region>

<region>
end=131839
hivel=7
interval_point=73728
key=F4
lovel=7
post_interval_tune=+3
pre_interval_tune=+13
sample=Altos_Mmm_slurred_legato_PP_F4_+7.opus
</region>

<region>
end=131839
hivel=8
interval_point=75264
key=F4
lovel=8
post_interval_tune=+9
pre_interval_tune=-6
sample=Altos_Mmm_slurred_legato_PP_F4_+8.opus
</region>

<region>
end=131839
hivel=9
interval_point=72704
key=F4
lovel=9
post_interval_tune=+13
pre_interval_tune=-5
sample=Altos_Mmm_slurred_legato_PP_F4_+9.opus
</region>

<region>
end=131839
hivel=10
interval_point=75264
key=F4
lovel=10
post_interval_tune=+14
pre_interval_tune=+9
sample=Altos_Mmm_slurred_legato_PP_F4_+10.opus
</region>

<region>
end=131839
hivel=11
interval_point=76288
key=F4
lovel=11
post_interval_tune=+15
pre_interval_tune=0
sample=Altos_Mmm_slurred_legato_PP_F4_+11.opus
</region>

<region>
end=131839
hivel=12
interval_point=83968
key=F4
lovel=12
post_interval_tune=-9
pre_interval_tune=-4
sample=Altos_Mmm_slurred_legato_PP_F4_+12.opus
</region>

<region>
end=120000
hivel=13
interval_point=73728
key=G#3
lovel=13
post_interval_tune=-32
pre_interval_tune=-9
sample=Altos_Mmm_slurred_legato_PP_G#3_-1.opus
</region>

<region>
end=120000
hivel=14
interval_point=82944
key=G#3
lovel=14
post_interval_tune=-29
pre_interval_tune=-1
sample=Altos_Mmm_slurred_legato_PP_G#3_-2.opus
</region>

<region>
end=120000
hivel=15
interval_point=63488
key=G#3
lovel=15
post_interval_tune=-41
pre_interval_tune=-1
sample=Altos_Mmm_slurred_legato_PP_G#3_-3.opus
</region>

<region>
end=120000
hivel=16
interval_point=75776
key=G#3
lovel=16
post_interval_tune=-20
pre_interval_tune=+9
sample=Altos_Mmm_slurred_legato_PP_G#3_-4.opus
</region>

<region>
end=120000
hivel=17
interval_point=70144
key=G#3
lovel=17
post_interval_tune=-45
pre_interval_tune=+7
sample=Altos_Mmm_slurred_legato_PP_G#3_-5.opus
</region>

<region>
end=120000
hivel=18
interval_point=67584
key=G#3
lovel=18
post_interval_tune=-46
pre_interval_tune=-2
sample=Altos_Mmm_slurred_legato_PP_G#3_-6.opus
</region>

<region>
end=120000
hivel=19
interval_point=73728
key=G#3
lovel=19
post_interval_tune=-29
pre_interval_tune=-8
sample=Altos_Mmm_slurred_legato_PP_G#3_-7.opus
</region>

<region>
end=120000
hivel=20
interval_point=67072
key=G#3
lovel=20
post_interval_tune=-31
pre_interval_tune=0
sample=Altos_Mmm_slurred_legato_PP_G#3_-8.opus
</region>

<region>
end=120000
hivel=21
interval_point=68096
key=G#3
lovel=21
post_interval_tune=-13
pre_interval_tune=+1
sample=Altos_Mmm_slurred_legato_PP_G#3_-9.opus
</region>

<region>
end=120000
hivel=22
interval_point=69632
key=G#3
lovel=22
post_interval_tune=-24
pre_interval_tune=-6
sample=Altos_Mmm_slurred_legato_PP_G#3_-10.opus
</region>

<region>
end=120000
hivel=23
interval_point=73728
key=G#3
lovel=23
post_interval_tune=-24
pre_interval_tune=0
sample=Altos_Mmm_slurred_legato_PP_G#3_-11.opus
</region>

<region>
end=120000
hivel=24
interval_point=68096
key=G#3
lovel=24
post_interval_tune=-7
pre_interval_tune=-2
sample=Altos_Mmm_slurred_legato_PP_G#3_-12.opus
</region>

<region>
end=131839
hivel=1
interval_point=75264
key=G#3
lovel=1
post_interval_tune=-5
pre_interval_tune=-24
sample=Altos_Mmm_slurred_legato_PP_G#3_+1.opus
</region>

<region>
end=131839
hivel=2
interval_point=71680
key=G#3
lovel=2
post_interval_tune=0
pre_interval_tune=-17
sample=Altos_Mmm_slurred_legato_PP_G#3_+2.opus
</region>

<region>
end=131839
hivel=3
interval_point=75776
key=G#3
lovel=3
post_interval_tune=-3
pre_interval_tune=-24
sample=Altos_Mmm_slurred_legato_PP_G#3_+3.opus
</region>

<region>
end=131839
hivel=4
interval_point=73728
key=G#3
lovel=4
post_interval_tune=-1
pre_interval_tune=-16
sample=Altos_Mmm_slurred_legato_PP_G#3_+4.opus
</region>

<region>
end=131839
hivel=5
interval_point=71168
key=G#3
lovel=5
post_interval_tune=+5
pre_interval_tune=-9
sample=Altos_Mmm_slurred_legato_PP_G#3_+5.opus
</region>

<region>
end=131839
hivel=6
interval_point=70656
key=G#3
lovel=6
post_interval_tune=-3
pre_interval_tune=-8
sample=Altos_Mmm_slurred_legato_PP_G#3_+6.opus
</region>

<region>
end=131839
hivel=7
interval_point=70656
key=G#3
lovel=7
post_interval_tune=+7
pre_interval_tune=-14
sample=Altos_Mmm_slurred_legato_PP_G#3_+7.opus
</region>

<region>
end=131839
hivel=8
interval_point=72704
key=G#3
lovel=8
post_interval_tune=+5
pre_interval_tune=-11
sample=Altos_Mmm_slurred_legato_PP_G#3_+8.opus
</region>

<region>
end=131839
hivel=9
interval_point=70656
key=G#3
lovel=9
post_interval_tune=+6
pre_interval_tune=-14
sample=Altos_Mmm_slurred_legato_PP_G#3_+9.opus
</region>

<region>
end=131839
hivel=10
interval_point=72192
key=G#3
lovel=10
post_interval_tune=-6
pre_interval_tune=-14
sample=Altos_Mmm_slurred_legato_PP_G#3_+10.opus
</region>

<region>
end=131839
hivel=11
interval_point=73216
key=G#3
lovel=11
post_interval_tune=-2
pre_interval_tune=-15
sample=Altos_Mmm_slurred_legato_PP_G#3_+11.opus
</region>

<region>
end=131839
hivel=12
interval_point=80384
key=G#3
lovel=12
post_interval_tune=-2
pre_interval_tune=-4
sample=Altos_Mmm_slurred_legato_PP_G#3_+12.opus
</region>

<region>
end=120000
hivel=13
interval_point=74240
key=G#4
lovel=13
post_interval_tune=-14
pre_interval_tune=+8
sample=Altos_Mmm_slurred_legato_PP_G#4_-1.opus
</region>

<region>
end=120000
hivel=14
interval_point=73216
key=G#4
lovel=14
post_interval_tune=-8
pre_interval_tune=+22
sample=Altos_Mmm_slurred_legato_PP_G#4_-2.opus
</region>

<region>
end=120000
hivel=15
interval_point=74240
key=G#4
lovel=15
post_interval_tune=+4
pre_interval_tune=+1
sample=Altos_Mmm_slurred_legato_PP_G#4_-3.opus
</region>

<region>
end=120000
hivel=16
interval_point=68096
key=G#4
lovel=16
post_interval_tune=-7
pre_interval_tune=+4
sample=Altos_Mmm_slurred_legato_PP_G#4_-4.opus
</region>

<region>
end=120000
hivel=17
interval_point=73216
key=G#4
lovel=17
post_interval_tune=+7
pre_interval_tune=+7
sample=Altos_Mmm_slurred_legato_PP_G#4_-5.opus
</region>

<region>
end=120000
hivel=18
interval_point=68608
key=G#4
lovel=18
post_interval_tune=+22
pre_interval_tune=+2
sample=Altos_Mmm_slurred_legato_PP_G#4_-6.opus
</region>

<region>
end=120000
hivel=19
interval_point=68096
key=G#4
lovel=19
post_interval_tune=+11
pre_interval_tune=+2
sample=Altos_Mmm_slurred_legato_PP_G#4_-7.opus
</region>

<region>
end=120000
hivel=20
interval_point=77824
key=G#4
lovel=20
post_interval_tune=-5
pre_interval_tune=-2
sample=Altos_Mmm_slurred_legato_PP_G#4_-8.opus
</region>

<region>
end=120000
hivel=21
interval_point=74240
key=G#4
lovel=21
post_interval_tune=-5
pre_interval_tune=-12
sample=Altos_Mmm_slurred_legato_PP_G#4_-9.opus
</region>

<region>
end=131839
hivel=1
interval_point=76288
key=G#4
lovel=1
post_interval_tune=+11
pre_interval_tune=-7
sample=Altos_Mmm_slurred_legato_PP_G#4_+1.opus
</region>

<region>
end=131839
hivel=2
interval_point=70144
key=G#4
lovel=2
post_interval_tune=+16
pre_interval_tune=+4
sample=Altos_Mmm_slurred_legato_PP_G#4_+2.opus
</region>

<region>
end=131839
hivel=3
interval_point=73728
key=G#4
lovel=3
post_interval_tune=+8
pre_interval_tune=+5
sample=Altos_Mmm_slurred_legato_PP_G#4_+3.opus
</region>

<region>
end=131839
hivel=4
interval_point=74752
key=G#4
lovel=4
post_interval_tune=+4
pre_interval_tune=+10
sample=Altos_Mmm_slurred_legato_PP_G#4_+4.opus
</region>

<region>
end=131839
hivel=5
interval_point=71680
key=G#4
lovel=5
post_interval_tune=+13
pre_interval_tune=+15
sample=Altos_Mmm_slurred_legato_PP_G#4_+5.opus
</region>

<region>
end=131839
hivel=6
interval_point=72192
key=G#4
lovel=6
post_interval_tune=+12
pre_interval_tune=+10
sample=Altos_Mmm_slurred_legato_PP_G#4_+6.opus
</region>

<region>
end=131839
hivel=7
interval_point=74752
key=G#4
lovel=7
post_interval_tune=+8
pre_interval_tune=+18
sample=Altos_Mmm_slurred_legato_PP_G#4_+7.opus
</region>

<region>
end=131839
hivel=8
interval_point=76800
key=G#4
lovel=8
post_interval_tune=+2
pre_interval_tune=-7
sample=Altos_Mmm_slurred_legato_PP_G#4_+8.opus
</region>

<region>
end=131839
hivel=9
interval_point=71168
key=G#4
lovel=9
post_interval_tune=-23
pre_interval_tune=0
sample=Altos_Mmm_slurred_legato_PP_G#4_+9.opus
</region>

<region>
end=120000
hikey=G3
hivel=13
interval_point=70656
lokey=D3
lovel=13
pitch_keycenter=G3
post_interval_tune=-43
pre_interval_tune=-11
sample=Altos_Mmm_slurred_legato_PP_G3_-1.opus
</region>

<region>
end=120000
hikey=G3
hivel=14
interval_point=69632
lokey=D3
lovel=14
pitch_keycenter=G3
post_interval_tune=-29
pre_interval_tune=-11
sample=Altos_Mmm_slurred_legato_PP_G3_-2.opus
</region>

<region>
end=120000
hikey=G3
hivel=15
interval_point=70144
lokey=D3
lovel=15
pitch_keycenter=G3
post_interval_tune=-37
pre_interval_tune=-9
sample=Altos_Mmm_slurred_legato_PP_G3_-3.opus
</region>

<region>
end=120000
hikey=G3
hivel=16
interval_point=81408
lokey=D3
lovel=16
pitch_keycenter=G3
post_interval_tune=-40
pre_interval_tune=-7
sample=Altos_Mmm_slurred_legato_PP_G3_-4.opus
</region>

<region>
end=120000
hikey=G3
hivel=17
interval_point=66560
lokey=D3
lovel=17
pitch_keycenter=G3
post_interval_tune=-40
pre_interval_tune=-15
sample=Altos_Mmm_slurred_legato_PP_G3_-5.opus
</region>

<region>
end=120000
hikey=G3
hivel=18
interval_point=71680
lokey=D3
lovel=18
pitch_keycenter=G3
post_interval_tune=-54
pre_interval_tune=-2
sample=Altos_Mmm_slurred_legato_PP_G3_-6.opus
</region>

<region>
end=120000
hikey=G3
hivel=19
interval_point=71680
lokey=D3
lovel=19
pitch_keycenter=G3
post_interval_tune=-51
pre_interval_tune=+7
sample=Altos_Mmm_slurred_legato_PP_G3_-7.opus
</region>

<region>
end=120000
hikey=G3
hivel=20
interval_point=67584
lokey=D3
lovel=20
pitch_keycenter=G3
post_interval_tune=-32
pre_interval_tune=-2
sample=Altos_Mmm_slurred_legato_PP_G3_-8.opus
</region>

<region>
end=120000
hikey=G3
hivel=21
interval_point=65536
lokey=D3
lovel=21
pitch_keycenter=G3
post_interval_tune=-23
pre_interval_tune=-8
sample=Altos_Mmm_slurred_legato_PP_G3_-9.opus
</region>

<region>
end=120000
hikey=G3
hivel=22
interval_point=67584
lokey=D3
lovel=22
pitch_keycenter=G3
post_interval_tune=-30
pre_interval_tune=-2
sample=Altos_Mmm_slurred_legato_PP_G3_-10.opus
</region>

<region>
end=120000
hikey=G3
hivel=23
interval_point=69632
lokey=D3
lovel=23
pitch_keycenter=G3
post_interval_tune=-24
pre_interval_tune=+5
sample=Altos_Mmm_slurred_legato_PP_G3_-11.opus
</region>

<region>
end=120000
hikey=G3
hivel=24
interval_point=70144
lokey=D3
lovel=24
pitch_keycenter=G3
post_interval_tune=-18
pre_interval_tune=-2
sample=Altos_Mmm_slurred_legato_PP_G3_-12.opus
</region>

<region>
end=131839
hikey=G3
hivel=1
interval_point=77312
lokey=D3
lovel=1
pitch_keycenter=G3
post_interval_tune=-10
pre_interval_tune=-19
sample=Altos_Mmm_slurred_legato_PP_G3_+1.opus
</region>

<region>
end=131839
hikey=G3
hivel=2
interval_point=70656
lokey=D3
lovel=2
pitch_keycenter=G3
post_interval_tune=-3
pre_interval_tune=-26
sample=Altos_Mmm_slurred_legato_PP_G3_+2.opus
</region>

<region>
end=131839
hikey=G3
hivel=3
interval_point=72704
lokey=D3
lovel=3
pitch_keycenter=G3
post_interval_tune=-1
pre_interval_tune=-8
sample=Altos_Mmm_slurred_legato_PP_G3_+3.opus
</region>

<region>
end=131839
hikey=G3
hivel=4
interval_point=69120
lokey=D3
lovel=4
pitch_keycenter=G3
post_interval_tune=+4
pre_interval_tune=-20
sample=Altos_Mmm_slurred_legato_PP_G3_+4.opus
</region>

<region>
end=131839
hikey=G3
hivel=5
interval_point=72192
lokey=D3
lovel=5
pitch_keycenter=G3
post_interval_tune=-5
pre_interval_tune=-11
sample=Altos_Mmm_slurred_legato_PP_G3_+5.opus
</region>

<region>
end=131839
hikey=G3
hivel=6
interval_point=69120
lokey=D3
lovel=6
pitch_keycenter=G3
post_interval_tune=-18
pre_interval_tune=-25
sample=Altos_Mmm_slurred_legato_PP_G3_+6.opus
</region>

<region>
end=131839
hikey=G3
hivel=7
interval_point=72704
lokey=D3
lovel=7
pitch_keycenter=G3
post_interval_tune=-6
pre_interval_tune=-18
sample=Altos_Mmm_slurred_legato_PP_G3_+7.opus
</region>

<region>
end=131839
hikey=G3
hivel=8
interval_point=73216
lokey=D3
lovel=8
pitch_keycenter=G3
post_interval_tune=-17
pre_interval_tune=-12
sample=Altos_Mmm_slurred_legato_PP_G3_+8.opus
</region>

<region>
end=131839
hikey=G3
hivel=9
interval_point=70656
lokey=D3
lovel=9
pitch_keycenter=G3
post_interval_tune=-5
pre_interval_tune=-10
sample=Altos_Mmm_slurred_legato_PP_G3_+9.opus
</region>

<region>
end=131839
hikey=G3
hivel=10
interval_point=72192
lokey=D3
lovel=10
pitch_keycenter=G3
post_interval_tune=+1
pre_interval_tune=-3
sample=Altos_Mmm_slurred_legato_PP_G3_+10.opus
</region>

<region>
end=131839
hikey=G3
hivel=11
interval_point=73216
lokey=D3
lovel=11
pitch_keycenter=G3
post_interval_tune=+1
pre_interval_tune=-21
sample=Altos_Mmm_slurred_legato_PP_G3_+11.opus
</region>

<region>
end=131839
hikey=G3
hivel=12
interval_point=71680
lokey=D3
lovel=12
pitch_keycenter=G3
post_interval_tune=-1
pre_interval_tune=-28
sample=Altos_Mmm_slurred_legato_PP_G3_+12.opus
</region>

<region>
end=120000
hivel=13
interval_point=69120
key=G4
lovel=13
post_interval_tune=-11
pre_interval_tune=+4
sample=Altos_Mmm_slurred_legato_PP_G4_-1.opus
</region>

<region>
end=120000
hivel=14
interval_point=70144
key=G4
lovel=14
post_interval_tune=-14
pre_interval_tune=+1
sample=Altos_Mmm_slurred_legato_PP_G4_-2.opus
</region>

<region>
end=120000
hivel=15
interval_point=71680
key=G4
lovel=15
post_interval_tune=-4
pre_interval_tune=+3
sample=Altos_Mmm_slurred_legato_PP_G4_-3.opus
</region>

<region>
end=120000
hivel=16
interval_point=71680
key=G4
lovel=16
post_interval_tune=-2
pre_interval_tune=+5
sample=Altos_Mmm_slurred_legato_PP_G4_-4.opus
</region>

<region>
end=120000
hivel=17
interval_point=70656
key=G4
lovel=17
post_interval_tune=-2
pre_interval_tune=-2
sample=Altos_Mmm_slurred_legato_PP_G4_-5.opus
</region>

<region>
end=120000
hivel=18
interval_point=71168
key=G4
lovel=18
post_interval_tune=-9
pre_interval_tune=+4
sample=Altos_Mmm_slurred_legato_PP_G4_-6.opus
</region>

<region>
end=120000
hivel=19
interval_point=70656
key=G4
lovel=19
post_interval_tune=+13
pre_interval_tune=-1
sample=Altos_Mmm_slurred_legato_PP_G4_-7.opus
</region>

<region>
end=120000
hivel=20
interval_point=72192
key=G4
lovel=20
post_interval_tune=+8
pre_interval_tune=+2
sample=Altos_Mmm_slurred_legato_PP_G4_-8.opus
</region>

<region>
end=120000
hivel=21
interval_point=77312
key=G4
lovel=21
post_interval_tune=+9
pre_interval_tune=-6
sample=Altos_Mmm_slurred_legato_PP_G4_-9.opus
</region>

<region>
end=120000
hivel=22
interval_point=71680
key=G4
lovel=22
post_interval_tune=+12
pre_interval_tune=+5
sample=Altos_Mmm_slurred_legato_PP_G4_-10.opus
</region>

<region>
end=131839
hivel=1
interval_point=81408
key=G4
lovel=1
post_interval_tune=+9
pre_interval_tune=-13
sample=Altos_Mmm_slurred_legato_PP_G4_+1.opus
</region>

<region>
end=131839
hivel=2
interval_point=78848
key=G4
lovel=2
post_interval_tune=-5
pre_interval_tune=+2
sample=Altos_Mmm_slurred_legato_PP_G4_+2.opus
</region>

<region>
end=131839
hivel=3
interval_point=76288
key=G4
lovel=3
post_interval_tune=+7
pre_interval_tune=+6
sample=Altos_Mmm_slurred_legato_PP_G4_+3.opus
</region>

<region>
end=131839
hivel=4
interval_point=76288
key=G4
lovel=4
post_interval_tune=+6
pre_interval_tune=+15
sample=Altos_Mmm_slurred_legato_PP_G4_+4.opus
</region>

<region>
end=131839
hivel=5
interval_point=76288
key=G4
lovel=5
post_interval_tune=-8
pre_interval_tune=+2
sample=Altos_Mmm_slurred_legato_PP_G4_+5.opus
</region>

<region>
end=131839
hivel=6
interval_point=78848
key=G4
lovel=6
post_interval_tune=-7
pre_interval_tune=+9
sample=Altos_Mmm_slurred_legato_PP_G4_+6.opus
</region>

<region>
end=131839
hivel=7
interval_point=79360
key=G4
lovel=7
post_interval_tune=+1
pre_interval_tune=+19
sample=Altos_Mmm_slurred_legato_PP_G4_+7.opus
</region>

<region>
end=131839
hivel=8
interval_point=78848
key=G4
lovel=8
post_interval_tune=+6
pre_interval_tune=+13
sample=Altos_Mmm_slurred_legato_PP_G4_+8.opus
</region>

<region>
end=131839
hivel=9
interval_point=75264
key=G4
lovel=9
post_interval_tune=+1
pre_interval_tune=+1
sample=Altos_Mmm_slurred_legato_PP_G4_+9.opus
</region>

<region>
end=131839
hivel=10
interval_point=71680
key=G4
lovel=10
post_interval_tune=+11
pre_interval_tune=+1
sample=Altos_Mmm_slurred_legato_PP_G4_+10.opus
</region>
</group>